<?xml version="1.0" standalone="no"?>
<!DOCTYPE svg PUBLIC "-//W3C//DTD SVG 20010904//EN"
 "http://www.w3.org/TR/2001/REC-SVG-20010904/DTD/svg10.dtd">
<svg version="1.0" xmlns="http://www.w3.org/2000/svg"
 width="512.000000pt" height="512.000000pt" viewBox="0 0 512.000000 512.000000"
 preserveAspectRatio="xMidYMid meet">
<metadata>
Created by potrace 1.14, written by Peter Selinger 2001-2017
</metadata>
<g transform="translate(0.000000,512.000000) scale(0.100000,-0.100000)"
fill="#000000" stroke="none">
<path d="M3864 4951 c-17 -4 -44 -16 -60 -25 -16 -10 -835 -824 -1820 -1809
-1714 -1714 -1792 -1794 -1809 -1846 -22 -67 -15 -146 19 -199 32 -51 849
-868 889 -888 17 -9 57 -19 89 -22 122 -10 -31 -154 1946 1822 1404 1402 1798
1802 1817 1840 30 59 32 121 8 192 -15 43 -63 95 -441 472 -261 261 -439 430
-465 443 -45 23 -125 32 -173 20z m-2813 -3854 c64 -42 89 -139 55 -205 -36
-70 -137 -102 -210 -67 -106 50 -115 205 -16 273 46 31 124 31 171 -1z"/>
</g>
</svg>
