<?xml version="1.0" standalone="no"?>
<!DOCTYPE svg PUBLIC "-//W3C//DTD SVG 20010904//EN"
 "http://www.w3.org/TR/2001/REC-SVG-20010904/DTD/svg10.dtd">
<svg version="1.0" xmlns="http://www.w3.org/2000/svg"
 width="256.000000pt" height="256.000000pt" viewBox="0 0 256.000000 256.000000"
 preserveAspectRatio="xMidYMid meet">
<metadata>
Created by potrace 1.14, written by Peter Selinger 2001-2017
</metadata>
<g transform="translate(0.000000,256.000000) scale(0.100000,-0.100000)"
fill="#000000" stroke="none">
<path d="M645 2060 c-246 -37 -457 -192 -566 -415 -63 -131 -84 -231 -76 -375
14 -277 170 -512 421 -635 139 -69 172 -72 641 -76 231 -2 426 0 433 4 7 5 12
31 12 68 l0 59 395 0 395 0 0 165 0 165 -75 0 -75 0 0 -40 c0 -27 -7 -47 -21
-61 -18 -18 -23 -19 -42 -6 -16 11 -23 26 -25 61 l-3 46 -54 0 -54 0 -3 -71
c-3 -61 -6 -74 -25 -86 -19 -13 -24 -12 -42 6 -17 17 -21 34 -21 86 l0 65 -55
0 -55 0 0 -44 c0 -35 -5 -48 -22 -60 -36 -25 -58 -5 -58 54 l0 50 -80 0 -80 0
0 284 0 284 -201 224 c-110 122 -210 231 -221 241 -18 15 -42 17 -207 16 -102
-1 -208 -5 -236 -9z m230 -274 c217 -58 365 -249 365 -470 0 -245 -156 -434
-401 -484 -66 -14 -89 -14 -151 -4 -197 34 -358 176 -408 361 -29 108 -7 265
50 366 104 183 345 285 545 231z"/>
<path d="M680 1646 c-115 -33 -187 -91 -236 -192 -25 -50 -29 -71 -29 -139 1
-103 35 -184 106 -250 74 -69 125 -88 239 -89 85 -1 100 2 148 27 70 37 128
97 161 166 22 48 26 69 25 146 0 104 -19 154 -85 229 -78 88 -223 133 -329
102z m204 -242 c12 -11 16 -35 16 -85 0 -110 1 -109 -143 -109 -82 0 -127 4
-135 12 -19 19 -16 163 4 182 23 23 235 23 258 0z"/>
<path d="M2495 1050 c-3 -6 -6 -129 -7 -275 0 -197 3 -269 12 -280 16 -19 25
-19 44 1 14 13 16 53 16 278 0 190 -3 265 -12 274 -15 15 -45 16 -53 2z"/>
</g>
</svg>
